<svg width="14" height="16" viewBox="0 0 14 16" fill="none" xmlns="http://www.w3.org/2000/svg">
<path fill-rule="evenodd" clip-rule="evenodd" d="M12.25 9.3929C12.25 10.1129 12.6849 10.7314 13.3063 11C13.519 11.0919 13.7536 11.1429 14 11.1429V12H0V11.1429C0.24643 11.1429 0.48097 11.0919 0.69365 11C1.3151 10.7314 1.75 10.1129 1.75 9.3929V6C1.75 2.6863 4.1005 0 7 0C9.8995 0 12.25 2.6863 12.25 6V9.3929ZM11.25 6V9.3929C11.25 9.9928 11.4421 10.5479 11.7682 11H2.2318C2.5579 10.5479 2.75 9.9928 2.75 9.3929V6C2.75 3.109 4.774 1 7 1C9.226 1 11.25 3.109 11.25 6Z" fill="#333333"/>
<path d="M7 15C5.8954 15 5 14.1046 5 13H4C4 14.6569 5.3431 16 7 16C8.6569 16 10 14.6569 10 13H9C9 14.1046 8.1046 15 7 15Z" fill="#333333"/>
</svg>
