<svg width="60" height="41" viewBox="0 0 60 41" fill="none" xmlns="http://www.w3.org/2000/svg">
<path d="M59.04 2.92341L57.0746 0.958049C56.4571 0.34 55.6337 0 54.7546 0C53.8756 0 53.0517 0.34 52.4341 0.958049L24.818 28.5737L7.5639 11.319C6.94634 10.702 6.12244 10.3615 5.24341 10.3615C4.36488 10.3615 3.54146 10.702 2.92341 11.319L0.957561 13.2839C0.339512 13.9029 0 14.7273 0 15.6054C0 16.4839 0.339512 17.3078 0.957561 17.9259L20.4385 37.4059C20.4644 37.4424 20.4917 37.4766 20.5234 37.5078L22.4893 39.441C23.1068 40.0566 23.9307 40.3644 24.8166 40.3644H24.8268C25.7063 40.3644 26.5302 40.0566 27.1468 39.441L29.1132 37.4907C29.1449 37.4595 29.1717 37.4337 29.1878 37.4073L59.0395 7.55854C60.32 6.28098 60.32 4.20244 59.04 2.92341Z" fill="black"/>
</svg>
