<svg width="249" height="98" viewBox="0 0 249 98" fill="none" xmlns="http://www.w3.org/2000/svg">
<path fill-rule="evenodd" clip-rule="evenodd" d="M13.057 82.9483C4.50335 73.8416 -0.169329 61.7628 0.0287552 49.2704C0.22684 36.7781 5.28012 24.8535 14.1182 16.0225C22.9563 7.19151 34.885 2.14783 47.3775 1.9598C59.87 1.77177 71.945 6.45416 81.0449 15.0151L13.057 82.9483Z" fill="#C12906"/>
<path fill-rule="evenodd" clip-rule="evenodd" d="M47.0601 49L13.057 82.9484C22.0803 91.9499 34.3055 97.005 47.051 97.005C59.7964 97.005 72.0216 91.9499 81.0449 82.9484L47.0601 49Z" fill="#ED6637"/>
<path fill-rule="evenodd" clip-rule="evenodd" d="M129.16 97.0966L81.0631 0.903442H119.478L148.358 58.6084L129.16 97.0966Z" fill="#ED6637"/>
<path fill-rule="evenodd" clip-rule="evenodd" d="M138.841 0.903442L129.16 20.266L148.358 58.6084L177.256 0.903442H138.841Z" fill="#C12906"/>
<path fill-rule="evenodd" clip-rule="evenodd" d="M181.705 39.4099L152.807 97.0966H191.222L200.903 77.734L181.705 39.4099Z" fill="#ED6637"/>
<path fill-rule="evenodd" clip-rule="evenodd" d="M181.705 39.4099L200.903 0.903442L249 97.0966H210.603L181.705 39.4099Z" fill="#C12906"/>
</svg>
