<svg width="17" height="16" viewBox="0 0 17 16" fill="none" xmlns="http://www.w3.org/2000/svg">
<path fill-rule="evenodd" clip-rule="evenodd" d="M6.5 1H0V0H7H7.5V0.5V5.70802C8.23547 6.02936 8.78645 6.69434 8.94999 7.5H14.2929L12.1464 5.35355L12.8536 4.64645L15.8536 7.64645L16.2071 8L15.8536 8.35355L12.8536 11.3536L12.1464 10.6464L14.2929 8.5H8.94999C8.78645 9.30566 8.23547 9.97064 7.5 10.292V15.5V16H7H0V15H6.5V10.5C5.11929 10.5 4 9.38071 4 8C4 6.61929 5.11929 5.5 6.5 5.5V1ZM6.5 9.5C7.32843 9.5 8 8.82843 8 8C8 7.17157 7.32843 6.5 6.5 6.5C5.67157 6.5 5 7.17157 5 8C5 8.82843 5.67157 9.5 6.5 9.5Z" fill="black" fill-opacity="0.8"/>
</svg>
