<svg width="26" height="26" viewBox="0 0 26 26" fill="none" xmlns="http://www.w3.org/2000/svg">
<path fill-rule="evenodd" clip-rule="evenodd" d="M4.75 13C4.75 17.5563 8.44365 21.25 13 21.25C13.84 21.25 14.615 21.0954 15.2451 20.6753C15.9123 20.2306 16.247 19.6032 16.3964 19.0054C16.5352 18.4504 16.5227 17.8904 16.4998 17.4784C16.4884 17.2731 16.476 17.1123 16.4652 16.9734C16.4496 16.7715 16.4375 16.6159 16.4375 16.4375C16.4375 15.6181 17.1631 14.9966 17.8125 14.9966C18.9862 14.9966 19.9082 14.4303 20.4874 13.5991C21.0337 12.8154 21.25 11.8467 21.25 10.9375C21.25 8.99912 20.1562 7.41399 18.6428 6.36866C17.1348 5.32699 15.133 4.75 13 4.75C8.44365 4.75 4.75 8.44365 4.75 13ZM13 19.875C9.20304 19.875 6.125 16.797 6.125 13C6.125 9.20304 9.20304 6.125 13 6.125C16.797 6.125 19.875 8.1875 19.875 10.9375C19.875 12.3599 19.1875 13.6216 17.8125 13.6216C16.4375 13.6216 15.0625 14.8254 15.0625 16.4375C15.0625 16.6606 15.0806 16.9018 15.0992 17.1494L15.0992 17.1495C15.1951 18.4276 15.3037 19.875 13 19.875ZM12.6562 10.3638C13.4156 10.3638 14.0312 9.74819 14.0312 8.9888C14.0312 8.22941 13.4156 7.6138 12.6562 7.6138C11.8969 7.6138 11.2812 8.22941 11.2812 8.9888C11.2812 9.74819 11.8969 10.3638 12.6562 10.3638ZM18.1566 10.3638C18.1566 11.1232 17.541 11.7388 16.7816 11.7388C16.0222 11.7388 15.4066 11.1232 15.4066 10.3638C15.4066 9.60441 16.0222 8.9888 16.7816 8.9888C17.541 8.9888 18.1566 9.60441 18.1566 10.3638ZM9.21875 13.0587C9.97814 13.0587 10.5937 12.4431 10.5937 11.6837C10.5937 10.9243 9.97814 10.3087 9.21875 10.3087C8.45936 10.3087 7.84375 10.9243 7.84375 11.6837C7.84375 12.4431 8.45936 13.0587 9.21875 13.0587Z" fill="black" fill-opacity="0.5"/>
</svg>
